<?xml version="1.0" standalone="no"?>
<!DOCTYPE svg PUBLIC "-//W3C//DTD SVG 20010904//EN"
 "http://www.w3.org/TR/2001/REC-SVG-20010904/DTD/svg10.dtd">
<svg version="1.0" xmlns="http://www.w3.org/2000/svg"
 width="260.000000pt" height="260.000000pt" viewBox="0 0 260.000000 260.000000"
 preserveAspectRatio="xMidYMid meet">
<metadata>
Created by potrace 1.11, written by Peter Selinger 2001-2013
</metadata>
<g transform="translate(0.000000,260.000000) scale(0.100000,-0.100000)"
fill="#000000" stroke="none">
<path d="M864 2014 c-34 -6 -83 -23 -110 -37 -55 -28 -134 -103 -134 -126 1
-23 55 -91 88 -111 55 -34 68 -33 121 4 112 76 214 54 189 -43 -9 -32 -98
-126 -291 -309 -37 -35 -75 -80 -84 -100 -15 -35 -20 -133 -7 -153 8 -13 661
-12 669 1 12 19 17 103 10 157 l-6 53 -155 -3 c-85 -1 -154 0 -154 3 0 3 15
15 34 28 67 46 171 158 205 222 39 73 46 147 22 232 -40 142 -212 221 -397
182z"/>
<path d="M1438 2002 c-24 -3 -27 -8 -33 -55 -4 -29 -4 -65 -2 -82 3 -16 6 -40
6 -52 1 -23 3 -23 146 -23 80 0 145 -3 145 -6 0 -6 -71 -93 -113 -139 -34 -36
-50 -71 -42 -94 4 -15 19 -17 92 -16 134 1 192 -36 179 -115 -10 -67 -52 -99
-127 -95 -50 3 -76 14 -132 57 l-37 30 -38 -28 c-20 -16 -43 -35 -50 -44 -21
-25 -52 -88 -52 -105 0 -8 27 -33 59 -54 213 -137 510 -84 603 109 28 56 35
195 13 247 -28 66 -90 124 -149 139 -14 3 -26 11 -26 18 0 6 24 36 53 66 87
90 106 120 113 183 4 31 3 57 -2 58 -30 2 -584 3 -606 1z"/>
<path d="M2297 1879 c-65 -50 -54 -150 20 -187 86 -42 177 28 159 122 -14 76
-118 114 -179 65z"/>
<path d="M115 1526 c3 -78 6 -105 21 -191 35 -207 154 -438 312 -606 284 -303
693 -437 1110 -365 239 41 481 171 656 350 71 73 153 182 187 249 l19 37 -127
0 -128 0 -60 -72 c-258 -311 -686 -438 -1065 -318 -410 131 -704 525 -702 943
l0 57 -113 0 -113 0 3 -84z"/>
<path d="M2322 1498 c-44 -28 -61 -86 -39 -133 53 -110 207 -78 207 44 0 87
-94 136 -168 89z"/>
</g>
</svg>
