<?xml version="1.0" encoding="utf-8"?>
<!-- Generator: Adobe Illustrator 16.0.0, SVG Export Plug-In . SVG Version: 6.00 Build 0)  -->
<!DOCTYPE svg PUBLIC "-//W3C//DTD SVG 1.1//EN" "http://www.w3.org/Graphics/SVG/1.1/DTD/svg11.dtd">
<svg version="1.1" id="Layer_1" xmlns="http://www.w3.org/2000/svg" xmlns:xlink="http://www.w3.org/1999/xlink" x="0px" y="0px"
	 width="402.463px" height="171.147px" viewBox="0 0 402.463 171.147" enable-background="new 0 0 402.463 171.147"
	 xml:space="preserve">
<rect x="-5815.537" y="-1461.725" fill="#FFFFFF" width="238" height="233"/>
<rect x="-5815.537" y="-1179.725" fill="#F4F7FC" width="238" height="233"/>
<rect x="-5815.537" y="-889.725" fill="#3D3863" width="238" height="233"/>
<rect x="-5815.537" y="-612.725" fill="#3098CE" width="238" height="232"/>
<rect x="-5815.537" y="-330.725" fill="#EAA74F" width="238" height="233"/>
<rect x="-5815.537" y="-53.725" fill="#C75879" width="238" height="233"/>
<rect x="-5815.537" y="241.275" fill="#2EAD77" width="238" height="233"/>
<rect x="-5815.537" y="508.275" fill="#8771B6" width="238" height="233"/>
<rect x="-5511.537" y="-1461.725" fill="#3D3863" width="2000" height="2001"/>
<g>
	<g>
		<path fill="#3098CE" d="M-2982.645-890.114c5.99,18.907,9.23,39.025,9.23,59.889c0,109.557-89.131,198.688-198.688,198.688
			c-53.638,0-102.371-21.374-138.153-56.04l-69.642,43.054c3.465,3.866,7.033,7.661,10.733,11.36
			c52.638,52.638,122.622,81.626,197.062,81.626s144.425-28.988,197.062-81.626c52.637-52.637,81.625-122.621,81.625-197.062
			c0-35.832-6.735-70.624-19.572-102.953L-2982.645-890.114z"/>
	</g>
	<circle fill="#C75879" cx="-3409.749" cy="-800.185" r="39.04"/>
	<circle fill="#2EAD77" cx="-3397.749" cy="-908.185" r="39.04"/>
</g>
<g>
	<path fill="#F4F7FC" d="M-4111.311,947.252c0,6.682-1.417,13.566-2.632,16.604h-100.837c-0.811-3.442-1.62-7.694-1.62-12.352
		c0-7.289,3.442-15.794,10.124-22.273c46.773-43.129,50.217-47.786,50.217-55.075c0-7.087-4.455-10.327-11.137-10.327
		c-9.72,0-17.617,5.062-25.918,12.554c-12.959-3.645-20.047-11.136-24.703-22.07c9.922-15.187,27.335-25.513,51.633-25.513
		c27.74,0,48.191,15.794,48.191,44.344c0,18.224-14.174,36.447-38.877,54.873l-6.479,4.252l7.897-0.81l41.509-0.202
		C-4112.322,935.103-4111.311,941.582-4111.311,947.252z"/>
	<path fill="#F4F7FC" d="M-4001.164,832.241c0.811,7.694,0.203,17.211-6.479,24.703l-21.058,23.083
		c13.363,2.43,31.182,12.148,31.182,37.257c0,36.649-26.728,50.621-56.088,50.621c-25.107,0-41.711-11.339-49.001-19.438
		c3.442-11.339,11.339-20.653,22.476-26.728c7.087,7.491,15.794,13.566,26.525,13.566c10.732,0,18.224-5.468,18.224-16.807
		c0-10.529-6.682-15.996-22.476-15.996h-18.831c-0.405-1.418-0.607-2.633-0.607-3.645c0-3.848,1.62-6.277,3.442-8.302l22.07-26.525
		h-44.748c-1.418-5.67-2.229-11.137-2.229-16.807c0.203-4.859,0.811-10.327,2.229-14.983H-4001.164z"/>
</g>
<path fill="#C75879" d="M-4175.291,1013.907c0,14.372-9.777,22.511-24.217,22.511c-6.891,0-11.222-0.395-14.635-0.854v-42.002
	c2.757-0.525,7.744-1.115,14.635-1.115C-4183.888,992.447-4175.291,1001.044-4175.291,1013.907z M-4188.351,1014.104
	c0-6.498-4.003-10.566-10.501-10.566c-1.049,0-2.23,0-3.478,0.065v21.657c1.116,0.065,2.297,0.065,3.478,0.065
	C-4192.354,1025.326-4188.351,1021.126-4188.351,1014.104z"/>
<path fill="#C75879" d="M-4140.178,1030.314c0,1.771-0.132,3.479-0.525,5.25h-29.27v-42.133h28.679
	c0.394,1.706,0.525,3.478,0.525,5.185c0,1.771-0.132,3.478-0.525,5.25h-16.866v5.185h14.963c0.395,1.706,0.525,3.412,0.525,5.185
	c0,1.706-0.131,3.413-0.525,5.119h-14.963v5.775h17.457C-4140.31,1026.836-4140.178,1028.607-4140.178,1030.314z"/>
<path fill="#C75879" d="M-4136.961,1031.562c0.263-4.069,2.232-7.811,5.119-9.517c2.822,2.034,7.613,3.741,12.666,3.741
	c3.873,0,5.186-0.722,5.186-2.101c0-1.641-0.788-2.297-7.941-4.135c-7.351-1.837-13.585-4.594-13.65-13.257
	c-0.066-8.729,6.891-13.979,17.26-13.979c7.613,0,12.863,2.494,15.226,4.397c-0.263,3.675-1.969,7.612-5.315,9.581
	c-2.297-1.641-6.17-3.149-10.829-3.149c-3.281,0-4.922,0.787-4.922,2.1c0,1.51,0.524,1.969,8.466,3.872
	c7.613,1.838,12.929,5.25,13.126,12.601c0.263,9.713-6.3,14.897-16.866,14.897
	C-4128.429,1036.614-4134.072,1033.924-4136.961,1031.562z"/>
<path fill="#C75879" d="M-4097.057,1035.564v-42.002c1.837-0.328,3.806-0.459,5.774-0.459c1.97,0,3.938,0.131,6.038,0.459v42.002
	c-1.838,0.328-3.807,0.459-5.775,0.459S-4094.957,1035.893-4097.057,1035.564z"/>
<path fill="#C75879" d="M-4041.798,1014.498v18.967c-3.281,1.641-7.481,3.347-15.423,3.347c-14.372,0-22.707-8.86-22.707-22.117
	c0-13.19,8.991-22.707,23.102-22.707c6.037,0,10.763,1.575,13.979,3.609c-0.591,3.741-2.953,7.941-6.432,9.845
	c-2.166-1.444-4.856-2.166-7.744-2.166c-6.365,0-10.041,4.2-10.041,11.223c0,6.891,3.807,11.223,9.844,11.223
	c1.379,0,2.561-0.066,3.609-0.197v-11.025c1.969-0.328,3.938-0.525,5.907-0.525
	C-4045.735,1013.973-4043.767,1014.17-4041.798,1014.498z"/>
<path fill="#C75879" d="M-3997.76,993.562v41.871c-3.938,0.722-8.006,0.787-11.484,0.524l-13.52-20.541l-1.51-2.691l0.328,3.348
	v19.491c-2.034,0.263-4.135,0.459-5.972,0.459c-1.969,0-3.544-0.196-5.841-0.459V993.76c2.822-0.788,7.678-0.984,11.484-0.591
	l13.52,21.395l1.51,2.69l-0.328-3.347v-20.345c2.166-0.328,3.74-0.459,5.775-0.459
	C-4001.763,993.104-3999.859,993.234-3997.76,993.562z"/>
<circle fill="#2EAD77" cx="-4262.827" cy="872.053" r="16.931"/>
<circle fill="#C75879" cx="-4260.26" cy="930.211" r="16.598"/>
<g>
	<path fill="#F4F7FC" d="M-4422.554,955.244c0,6.682-1.417,13.566-2.632,16.604h-100.838c-0.81-3.441-1.62-7.693-1.62-12.352
		c0-7.289,3.442-15.793,10.124-22.273c46.774-43.129,50.216-47.785,50.216-55.074c0-7.088-4.455-10.328-11.137-10.328
		c-9.719,0-17.616,5.062-25.918,12.555c-12.959-3.645-20.046-11.137-24.703-22.07c9.922-15.188,27.336-25.514,51.633-25.514
		c27.741,0,48.191,15.795,48.191,44.344c0,18.225-14.174,36.447-38.877,54.873l-6.479,4.252l7.896-0.809l41.51-0.203
		C-4423.566,943.096-4422.554,949.574-4422.554,955.244z"/>
	<path fill="#F4F7FC" d="M-4312.408,840.234c0.811,7.693,0.203,17.211-6.479,24.703l-21.059,23.082
		c13.363,2.43,31.183,12.148,31.183,37.258c0,36.648-26.728,50.621-56.089,50.621c-25.107,0-41.711-11.34-49-19.439
		c3.441-11.338,11.339-20.652,22.475-26.727c7.088,7.49,15.795,13.566,26.525,13.566c10.732,0,18.225-5.469,18.225-16.807
		c0-10.529-6.682-15.996-22.477-15.996h-18.83c-0.405-1.418-0.607-2.633-0.607-3.645c0-3.848,1.619-6.277,3.441-8.303l22.071-26.525
		h-44.749c-1.418-5.67-2.228-11.137-2.228-16.807c0.202-4.859,0.81-10.326,2.228-14.982H-4312.408z"/>
</g>
<g>
	<path fill="#3098CE" d="M-4293.395,992.275c-27.45,39.972-73.471,66.242-125.518,66.242c-83.908,0-152.171-68.266-152.171-152.172
		c0-2.034,0.054-4.056,0.134-6.07h-33.342c-0.065,2.017-0.11,4.038-0.11,6.07c0,102.279,83.21,185.488,185.489,185.488
		c71.289,0,133.302-40.43,164.344-99.559H-4293.395z"/>
</g>
<rect x="-3332.537" y="37.275" fill="#3D3863" width="500" height="501"/>
<g>
	<g>
		<path fill="#F4F7FC" d="M-2971.229,280.571c0,3.919-0.832,7.958-1.545,9.74h-59.148c-0.475-2.02-0.949-4.515-0.949-7.246
			c0-4.275,2.02-9.264,5.938-13.064c27.438-25.299,29.457-28.031,29.457-32.307c0-4.157-2.613-6.058-6.533-6.058
			c-5.701,0-10.334,2.97-15.203,7.364c-7.6-2.139-11.758-6.532-14.49-12.946c5.82-8.908,16.033-14.966,30.287-14.966
			c16.271,0,28.268,9.266,28.268,26.012c0,10.689-8.312,21.379-22.803,32.188l-3.801,2.494l4.631-0.475l24.348-0.118
			C-2971.822,273.445-2971.229,277.246-2971.229,280.571z"/>
		<path fill="#F4F7FC" d="M-2906.619,213.108c0.477,4.514,0.119,10.096-3.801,14.491l-12.352,13.539
			c7.838,1.425,18.291,7.127,18.291,21.854c0,21.497-15.68,29.693-32.9,29.693c-14.729,0-24.467-6.651-28.742-11.402
			c2.018-6.651,6.65-12.114,13.184-15.678c4.156,4.395,9.264,7.958,15.559,7.958s10.689-3.207,10.689-9.858
			c0-6.177-3.92-9.383-13.184-9.383h-11.047c-0.236-0.832-0.355-1.545-0.355-2.139c0-2.257,0.951-3.682,2.02-4.869l12.945-15.56
			h-26.248c-0.832-3.325-1.309-6.532-1.309-9.858c0.121-2.851,0.477-6.058,1.309-8.789H-2906.619z"/>
	</g>
	<path fill="#EAA74F" d="M-3008.758,319.67c0,8.431-5.736,13.204-14.205,13.204c-4.043,0-6.582-0.231-8.586-0.5v-24.638
		c1.619-0.308,4.543-0.654,8.586-0.654C-3013.801,307.082-3008.758,312.125-3008.758,319.67z M-3016.418,319.786
		c0-3.812-2.35-6.198-6.16-6.198c-0.615,0-1.309,0-2.039,0.039v12.703c0.654,0.038,1.346,0.038,2.039,0.038
		C-3018.768,326.368-3016.418,323.905-3016.418,319.786z"/>
	<path fill="#EAA74F" d="M-2988.162,329.294c0,1.039-0.076,2.041-0.309,3.08h-17.168v-24.715h16.822
		c0.23,1.001,0.309,2.04,0.309,3.042c0,1.038-0.078,2.039-0.309,3.079h-9.893v3.042h8.775c0.232,0.999,0.309,2.001,0.309,3.04
		c0,1.001-0.076,2.003-0.309,3.003h-8.775v3.388h10.238C-2988.238,327.254-2988.162,328.293-2988.162,329.294z"/>
	<path fill="#EAA74F" d="M-2986.275,330.025c0.156-2.387,1.311-4.581,3.004-5.582c1.656,1.193,4.465,2.194,7.43,2.194
		c2.271,0,3.041-0.423,3.041-1.231c0-0.963-0.463-1.348-4.658-2.426c-4.311-1.077-7.969-2.694-8.006-7.776
		c-0.041-5.12,4.041-8.199,10.123-8.199c4.467,0,7.545,1.463,8.932,2.58c-0.154,2.154-1.154,4.465-3.119,5.619
		c-1.346-0.963-3.619-1.848-6.352-1.848c-1.924,0-2.887,0.463-2.887,1.232c0,0.886,0.309,1.154,4.965,2.271
		c4.467,1.078,7.584,3.08,7.701,7.392c0.152,5.697-3.695,8.738-9.895,8.738C-2981.27,332.989-2984.58,331.412-2986.275,330.025z"/>
	<path fill="#EAA74F" d="M-2962.867,332.374v-24.638c1.078-0.192,2.232-0.27,3.387-0.27c1.156,0,2.311,0.077,3.543,0.27v24.638
		c-1.08,0.192-2.234,0.269-3.389,0.269S-2961.637,332.566-2962.867,332.374z"/>
	<path fill="#EAA74F" d="M-2930.453,320.017v11.126c-1.926,0.962-4.389,1.963-9.047,1.963c-8.432,0-13.32-5.198-13.32-12.974
		c0-7.737,5.273-13.319,13.551-13.319c3.543,0,6.312,0.924,8.199,2.117c-0.346,2.194-1.73,4.658-3.771,5.774
		c-1.271-0.848-2.85-1.271-4.543-1.271c-3.734,0-5.891,2.464-5.891,6.583c0,4.042,2.232,6.583,5.775,6.583
		c0.809,0,1.502-0.039,2.117-0.115v-6.468c1.154-0.192,2.309-0.308,3.465-0.308
		C-2932.764,319.709-2931.609,319.824-2930.453,320.017z"/>
	<path fill="#EAA74F" d="M-2904.621,307.736v24.561c-2.311,0.423-4.697,0.462-6.738,0.308l-7.93-12.049l-0.885-1.578l0.191,1.963
		v11.434c-1.193,0.154-2.424,0.269-3.502,0.269c-1.156,0-2.08-0.114-3.428-0.269v-24.522c1.656-0.462,4.506-0.577,6.738-0.346
		l7.93,12.549l0.885,1.578l-0.191-1.963v-11.934c1.271-0.192,2.193-0.27,3.387-0.27S-2905.854,307.544-2904.621,307.736z"/>
	<g>
		<path fill="#F4F7FC" d="M-3153.797,285.26c0,3.919-0.832,7.958-1.545,9.739h-59.148c-0.477-2.019-0.951-4.513-0.951-7.245
			c0-4.275,2.02-9.265,5.939-13.065c27.438-25.299,29.455-28.029,29.455-32.305c0-4.158-2.613-6.059-6.531-6.059
			c-5.701,0-10.334,2.97-15.203,7.364c-7.602-2.138-11.76-6.532-14.49-12.946c5.82-8.908,16.035-14.965,30.287-14.965
			c16.271,0,28.268,9.265,28.268,26.011c0,10.689-8.314,21.379-22.805,32.187l-3.801,2.494l4.633-0.474l24.348-0.12
			C-3154.391,278.133-3153.797,281.935-3153.797,285.26z"/>
		<path fill="#F4F7FC" d="M-3089.188,217.798c0.475,4.513,0.119,10.095-3.801,14.489l-12.352,13.54
			c7.838,1.425,18.289,7.126,18.289,21.854c0,21.497-15.676,29.693-32.9,29.693c-14.727,0-24.467-6.651-28.742-11.402
			c2.02-6.651,6.65-12.114,13.184-15.678c4.158,4.394,9.266,7.958,15.559,7.958c6.295,0,10.691-3.208,10.691-9.858
			c0-6.177-3.92-9.384-13.186-9.384h-11.045c-0.238-0.832-0.355-1.544-0.355-2.138c0-2.257,0.949-3.682,2.018-4.87l12.947-15.559
			h-26.25c-0.83-3.326-1.305-6.533-1.305-9.858c0.117-2.851,0.475-6.058,1.305-8.788H-3089.188z"/>
	</g>
	<g>
		<circle fill="#EAA74F" cx="-3060.041" cy="236.461" r="9.932"/>
		<circle fill="#EAA74F" cx="-3058.535" cy="270.575" r="9.736"/>
		<g>
			<path fill="#3098CE" d="M-3077.972,307.275c-16.101,23-43.096,38.709-73.626,38.709c-49.219,0-89.261-39.985-89.261-89.204
				c0-1.193,0.032-2.505,0.079-3.505h-19.558c-0.038,1-0.064,2.24-0.064,3.432c0,59.996,48.81,108.885,108.804,108.885
				c41.816,0,78.193-23.316,96.401-58.316H-3077.972z"/>
		</g>
	</g>
</g>
<rect x="-1911.537" y="-818.725" fill="#3D3863" width="851" height="319"/>
<g>
	<g>
		<path fill="#F4F7FC" d="M-1375.026-667.211c0,3.919-0.832,7.958-1.546,9.74h-59.147c-0.475-2.02-0.949-4.515-0.949-7.246
			c0-4.275,2.02-9.264,5.938-13.064c27.438-25.299,29.457-28.031,29.457-32.307c0-4.157-2.613-6.058-6.533-6.058
			c-5.701,0-10.334,2.97-15.203,7.364c-7.6-2.139-11.758-6.532-14.49-12.946c5.82-8.908,16.033-14.966,30.287-14.966
			c16.271,0,28.268,9.266,28.268,26.012c0,10.689-8.312,21.379-22.803,32.188l-3.801,2.494l4.631-0.475l24.347-0.118
			C-1375.62-674.337-1375.026-670.536-1375.026-667.211z"/>
		<path fill="#F4F7FC" d="M-1310.417-734.674c0.477,4.514,0.119,10.096-3.801,14.491l-12.352,13.539
			c7.838,1.425,18.291,7.127,18.291,21.854c0,21.497-15.68,29.693-32.9,29.693c-14.729,0-24.467-6.651-28.743-11.402
			c2.018-6.651,6.65-12.114,13.185-15.678c4.156,4.395,9.264,7.958,15.559,7.958s10.689-3.207,10.689-9.858
			c0-6.177-3.92-9.383-13.184-9.383h-11.047c-0.236-0.832-0.355-1.545-0.355-2.139c0-2.257,0.951-3.682,2.02-4.869l12.945-15.56
			h-26.248c-0.832-3.325-1.309-6.532-1.309-9.858c0.121-2.851,0.477-6.058,1.309-8.789H-1310.417z"/>
	</g>
	<path fill="#EAA74F" d="M-1412.556-628.112c0,8.431-5.736,13.204-14.205,13.204c-4.043,0-6.582-0.231-8.586-0.5v-24.638
		c1.619-0.308,4.543-0.654,8.586-0.654C-1417.599-640.7-1412.556-635.657-1412.556-628.112z M-1420.216-627.996
		c0-3.812-2.35-6.198-6.16-6.198c-0.615,0-1.309,0-2.039,0.039v12.703c0.654,0.038,1.346,0.038,2.039,0.038
		C-1422.565-621.414-1420.216-623.877-1420.216-627.996z"/>
	<path fill="#EAA74F" d="M-1391.96-618.488c0,1.039-0.076,2.041-0.309,3.08h-17.168v-24.715h16.822
		c0.23,1.001,0.308,2.04,0.308,3.042c0,1.038-0.077,2.039-0.308,3.079h-9.893v3.042h8.775c0.232,0.999,0.309,2.001,0.309,3.04
		c0,1.001-0.076,2.003-0.309,3.003h-8.775v3.388h10.238C-1392.036-620.528-1391.96-619.489-1391.96-618.488z"/>
	<path fill="#EAA74F" d="M-1390.073-617.757c0.156-2.387,1.311-4.581,3.004-5.582c1.656,1.193,4.465,2.194,7.43,2.194
		c2.271,0,3.041-0.423,3.041-1.231c0-0.963-0.463-1.348-4.658-2.426c-4.311-1.077-7.969-2.694-8.006-7.776
		c-0.041-5.12,4.04-8.199,10.123-8.199c4.467,0,7.545,1.463,8.932,2.58c-0.154,2.154-1.154,4.465-3.119,5.619
		c-1.346-0.963-3.619-1.848-6.352-1.848c-1.925,0-2.887,0.463-2.887,1.232c0,0.886,0.309,1.154,4.965,2.271
		c4.467,1.078,7.584,3.08,7.701,7.392c0.152,5.697-3.695,8.738-9.895,8.738C-1385.067-614.793-1388.378-616.37-1390.073-617.757z"/>
	<path fill="#EAA74F" d="M-1366.665-615.408v-24.638c1.078-0.192,2.232-0.27,3.387-0.27c1.156,0,2.311,0.077,3.542,0.27v24.638
		c-1.079,0.192-2.234,0.269-3.388,0.269C-1364.278-615.14-1365.435-615.216-1366.665-615.408z"/>
	<path fill="#EAA74F" d="M-1334.251-627.766v11.126c-1.926,0.962-4.389,1.963-9.047,1.963c-8.432,0-13.321-5.198-13.321-12.974
		c0-7.737,5.274-13.319,13.552-13.319c3.543,0,6.312,0.924,8.198,2.117c-0.345,2.194-1.729,4.658-3.771,5.774
		c-1.271-0.848-2.85-1.271-4.543-1.271c-3.734,0-5.891,2.464-5.891,6.583c0,4.042,2.232,6.583,5.775,6.583
		c0.809,0,1.502-0.039,2.117-0.115v-6.468c1.154-0.192,2.309-0.308,3.465-0.308
		C-1336.562-628.073-1335.407-627.958-1334.251-627.766z"/>
	<path fill="#EAA74F" d="M-1308.419-640.046v24.561c-2.311,0.423-4.697,0.462-6.738,0.308l-7.93-12.049l-0.885-1.578l0.191,1.963
		v11.434c-1.193,0.154-2.424,0.269-3.502,0.269c-1.157,0-2.08-0.114-3.428-0.269v-24.522c1.655-0.462,4.506-0.577,6.738-0.346
		l7.93,12.549l0.885,1.578l-0.191-1.963v-11.934c1.271-0.192,2.192-0.27,3.387-0.27
		C-1310.769-640.315-1309.652-640.238-1308.419-640.046z"/>
	<g>
		<path fill="#F4F7FC" d="M-1557.595-662.522c0,3.919-0.832,7.958-1.545,9.739h-59.148c-0.477-2.019-0.951-4.513-0.951-7.245
			c0-4.275,2.02-9.265,5.939-13.065c27.438-25.299,29.455-28.029,29.455-32.305c0-4.158-2.613-6.059-6.531-6.059
			c-5.701,0-10.334,2.97-15.203,7.364c-7.602-2.138-11.76-6.532-14.49-12.946c5.82-8.908,16.035-14.965,30.287-14.965
			c16.271,0,28.268,9.265,28.268,26.011c0,10.689-8.314,21.379-22.805,32.187l-3.801,2.494l4.633-0.474l24.348-0.12
			C-1558.188-669.649-1557.595-665.848-1557.595-662.522z"/>
		<path fill="#F4F7FC" d="M-1492.985-729.984c0.475,4.513,0.119,10.095-3.801,14.489l-12.352,13.54
			c7.838,1.425,18.289,7.126,18.289,21.854c0,21.497-15.676,29.693-32.9,29.693c-14.727,0-24.467-6.651-28.742-11.402
			c2.02-6.651,6.65-12.114,13.184-15.678c4.158,4.394,9.266,7.958,15.559,7.958c6.295,0,10.691-3.208,10.691-9.858
			c0-6.177-3.92-9.384-13.186-9.384h-11.045c-0.238-0.832-0.355-1.544-0.355-2.138c0-2.257,0.949-3.682,2.018-4.87l12.947-15.559
			h-26.25c-0.83-3.326-1.305-6.533-1.305-9.858c0.117-2.851,0.475-6.058,1.305-8.788H-1492.985z"/>
	</g>
	<g>
		<circle fill="#EAA74F" cx="-1464.041" cy="-711.321" r="9.932"/>
		<circle fill="#EAA74F" cx="-1462.535" cy="-677.207" r="9.736"/>
		<g>
			<path fill="#3098CE" d="M-1481.972-640.725c-16.101,23-43.096,38.818-73.626,38.818c-49.219,0-89.261-40.04-89.261-89.258
				c0-1.193,0.032-2.56,0.079-3.56h-19.558c-0.038,1-0.064,2.349-0.064,3.541c0,59.996,48.81,108.831,108.804,108.831
				c41.816,0,78.193-23.371,96.401-58.371H-1481.972z"/>
		</g>
	</g>
</g>
<rect x="-1910.537" y="-473.725" fill="#3D3863" width="409" height="409"/>
<g>
	<g>
		<path fill="#F4F7FC" d="M-1704.607-270.995c0,5.667-1.203,11.507-2.235,14.081h-85.543c-0.69-2.915-1.376-6.523-1.376-10.478
			c0-6.183,2.92-13.398,8.59-18.893c39.682-36.591,42.6-40.54,42.6-46.723c0-6.013-3.779-8.761-9.446-8.761
			c-8.245,0-14.944,4.292-21.987,10.647c-10.993-3.089-17.009-9.444-20.956-18.72c8.416-12.888,23.19-21.644,43.803-21.644
			c23.531,0,40.882,13.398,40.882,37.616c0,15.461-12.024,30.919-32.98,46.549l-5.499,3.608l6.702-0.684l35.212-0.173
			C-1705.467-281.305-1704.607-275.806-1704.607-270.995z"/>
		<path fill="#F4F7FC" d="M-1611.167-368.563c0.686,6.524,0.173,14.601-5.499,20.956l-17.862,19.58
			c11.337,2.06,26.45,10.305,26.45,31.607c0,31.092-22.669,42.945-47.582,42.945c-21.297,0-35.386-9.621-41.567-16.491
			c2.92-9.621,9.617-17.521,19.065-22.673c6.016,6.354,13.402,11.507,22.502,11.507c9.104,0,15.465-4.638,15.465-14.259
			c0-8.93-5.672-13.571-19.07-13.571h-15.975c-0.344-1.202-0.515-2.232-0.515-3.089c0-3.266,1.374-5.325,2.918-7.043l18.726-22.505
			h-37.964c-1.2-4.811-1.886-9.448-1.886-14.255c0.168-4.122,0.686-8.76,1.886-12.71H-1611.167z"/>
	</g>
	<g>
		<circle fill="#EAA74F" cx="-1569.333" cy="-341.572" r="14.363"/>
		<circle fill="#EAA74F" cx="-1567.155" cy="-292.235" r="14.081"/>
		<g>
			<path fill="#3098CE" d="M-1595.266-239.725c-23.286,34-62.327,56.264-106.482,56.264c-71.182,0-129.093-57.422-129.093-128.606
				c0-1.722,0.047-2.657,0.116-4.657h-28.286c-0.055,2-0.093,2.974-0.093,4.696c0,86.77,70.59,157.058,157.355,157.058
				c60.479,0,113.088-32.754,139.42-84.754H-1595.266z"/>
		</g>
	</g>
</g>
<g>
	<g>
		<path fill="#F4F7FC" d="M-4072.959-702.47c0,16.458-3.494,33.421-6.488,40.906h-248.406c-1.993-8.481-3.986-18.96-3.986-30.432
			c0-17.955,8.481-38.905,24.936-54.867c115.229-106.248,123.711-117.723,123.711-135.679c0-17.459-10.975-25.44-27.438-25.44
			c-23.943,0-43.399,12.472-63.849,30.928c-31.916-8.981-49.379-27.433-60.854-54.371c24.443-37.412,67.335-62.852,127.197-62.852
			c68.335,0,118.715,38.913,118.715,109.242c0,44.893-34.91,89.785-95.765,135.178l-15.962,10.475l19.448-1.993l102.253-0.496
			C-4075.452-732.397-4072.959-716.435-4072.959-702.47z"/>
		<path fill="#F4F7FC" d="M-3801.618-985.794c2.001,18.957,0.501,42.399-15.962,60.859l-51.873,56.86
			c32.917,5.984,76.816,29.931,76.816,91.782c0,90.282-65.85,124.704-138.172,124.704c-61.855,0-102.754-27.934-120.709-47.886
			c8.474-27.934,27.93-50.876,55.367-65.842c17.455,18.456,38.905,33.421,65.342,33.421c26.438,0,44.893-13.468,44.893-41.402
			c0-25.94-16.463-39.405-55.367-39.405h-46.394c-0.993-3.494-1.493-6.488-1.493-8.981c0-9.478,3.995-15.462,8.481-20.449
			l54.366-65.346h-110.233c-3.495-13.965-5.496-27.434-5.496-41.402c0.509-11.972,2.001-25.44,5.496-36.912H-3801.618z"/>
	</g>
	<path fill="#EAA74F" d="M-4230.571-538.267c0,35.406-24.091,55.453-59.657,55.453c-16.979,0-27.643-0.972-36.059-2.1v-103.471
		c6.801-1.292,19.079-2.748,36.059-2.748C-4251.75-591.132-4230.571-569.953-4230.571-538.267z M-4262.741-537.779
		c0-16.007-9.868-26.031-25.871-26.031c-2.584,0-5.496,0-8.563,0.164v53.35c2.748,0.16,5.651,0.16,8.563,0.16
		C-4272.609-510.136-4262.741-520.479-4262.741-537.779z"/>
	<path fill="#EAA74F" d="M-4144.075-497.849c0,4.364-0.319,8.572-1.296,12.936h-72.101v-103.795h70.648
		c0.968,4.204,1.296,8.568,1.296,12.775c0,4.36-0.328,8.563-1.296,12.932h-41.546v12.775h36.854
		c0.976,4.196,1.296,8.403,1.296,12.767c0,4.204-0.32,8.412-1.296,12.612h-36.854v14.227h42.998
		C-4144.395-506.416-4144.075-502.052-4144.075-497.849z"/>
	<path fill="#EAA74F" d="M-4136.151-494.777c0.656-10.023,5.504-19.239,12.615-23.443c6.956,5.012,18.751,9.216,31.203,9.216
		c9.539,0,12.771-1.776,12.771-5.172c0-4.044-1.943-5.66-19.562-10.188c-18.104-4.524-33.467-11.315-33.622-32.659
		c-0.173-21.503,16.971-34.434,42.514-34.434c18.759,0,31.687,6.144,37.511,10.835c-0.648,9.047-4.848,18.751-13.1,23.599
		c-5.652-4.044-15.199-7.759-26.675-7.759c-8.08,0-12.124,1.944-12.124,5.176c0,3.72,1.297,4.848,20.852,9.535
		c18.759,4.528,31.851,12.936,32.342,31.042c0.641,23.927-15.519,36.698-41.554,36.698
		C-4115.128-482.33-4129.031-488.953-4136.151-494.777z"/>
	<path fill="#EAA74F" d="M-4037.844-484.913v-103.471c4.527-0.808,9.375-1.132,14.224-1.132c4.855,0,9.703,0.324,14.879,1.132
		v103.471c-4.536,0.808-9.384,1.128-14.231,1.128S-4032.676-484.105-4037.844-484.913z"/>
	<path fill="#EAA74F" d="M-3901.714-536.811v46.726c-8.088,4.04-18.432,8.244-37.994,8.244c-35.411,0-55.941-21.831-55.941-54.485
		c0-32.495,22.146-55.938,56.909-55.938c14.879,0,26.511,3.88,34.435,8.892c-1.452,9.215-7.268,19.563-15.84,24.251
		c-5.34-3.56-11.968-5.336-19.079-5.336c-15.684,0-24.738,10.348-24.738,27.647c0,16.975,9.375,27.646,24.255,27.646
		c3.396,0,6.308-0.164,8.892-0.484v-27.163c4.848-0.808,9.695-1.292,14.551-1.292
		C-3911.418-538.103-3906.57-537.619-3901.714-536.811z"/>
	<path fill="#EAA74F" d="M-3793.227-588.384v103.147c-9.704,1.776-19.728,1.94-28.299,1.292l-33.303-50.602l-3.716-6.627
		l0.804,8.243v48.018c-5.012,0.648-10.18,1.128-14.707,1.128c-4.855,0-8.736-0.48-14.396-1.128V-587.9
		c6.956-1.94,18.923-2.424,28.299-1.452l33.303,52.701l3.716,6.628l-0.805-8.244v-50.118c5.34-0.808,9.212-1.132,14.224-1.132
		S-3798.402-589.192-3793.227-588.384z"/>
	<g>
		<path fill="#F4F7FC" d="M-4839.693-682.779c0,16.458-3.494,33.421-6.488,40.902h-248.406c-2.001-8.477-3.995-18.952-3.995-30.427
			c0-17.956,8.481-38.909,24.944-54.871c115.229-106.248,123.703-117.715,123.703-135.67c0-17.463-10.975-25.444-27.43-25.444
			c-23.943,0-43.399,12.472-63.849,30.928c-31.924-8.978-49.388-27.434-60.854-54.371c24.443-37.412,67.343-62.848,127.197-62.848
			c68.335,0,118.716,38.909,118.716,109.238c0,44.893-34.918,89.785-95.773,135.174l-15.962,10.475l19.457-1.989l102.253-0.504
			C-4842.187-712.71-4839.693-696.744-4839.693-682.779z"/>
		<path fill="#F4F7FC" d="M-4568.353-966.1c1.993,18.952,0.5,42.395-15.962,60.851l-51.873,56.864
			c32.917,5.984,76.809,29.927,76.809,91.783c0,90.282-65.834,124.704-138.172,124.704c-61.847,0-102.753-27.934-120.708-47.887
			c8.481-27.934,27.93-50.876,55.367-65.842c17.463,18.452,38.913,33.421,65.341,33.421c26.437,0,44.901-13.473,44.901-41.402
			c0-25.941-16.462-39.409-55.375-39.409h-46.385c-1.001-3.495-1.493-6.484-1.493-8.978c0-9.478,3.986-15.462,8.474-20.453
			l54.375-65.341h-110.242c-3.486-13.969-5.479-27.438-5.479-41.402c0.492-11.972,1.993-25.44,5.479-36.908H-4568.353z"/>
	</g>
	<g>
		<path fill="#EAA74F" d="M-4404.235-887.72c0,23.037-18.678,41.71-41.71,41.71c-23.037,0-41.711-18.673-41.711-41.71
			c0-23.033,18.674-41.706,41.711-41.706C-4422.913-929.426-4404.235-910.753-4404.235-887.72z"/>
		<path fill="#EAA74F" d="M-4398.731-744.45c0,22.582-18.309,40.89-40.89,40.89c-22.578,0-40.886-18.308-40.886-40.89
			c0-22.578,18.308-40.886,40.886-40.886C-4417.04-785.336-4398.731-767.028-4398.731-744.45z"/>
		<g>
			<path fill="#3098CE" d="M-4521.25-590.725c-67.618,97-180.989,162.769-309.208,162.769c-206.705,0-374.87-167.636-374.87-374.34
				c0-5.012,0.135-10.428,0.333-14.428h-82.137c-0.16,4-0.271,9.218-0.271,14.222c0,251.966,204.986,456.987,456.944,456.987
				c175.617,0,328.39-98.209,404.857-245.209H-4521.25z"/>
		</g>
	</g>
</g>
<rect x="-782.537" y="-870.725" fill="#3D3863" width="1500" height="423"/>
<g>
	<g>
		<path fill="#F4F7FC" d="M78.875-667.062c0,3.919-0.832,7.958-1.546,9.74H18.182c-0.475-2.02-0.949-4.515-0.949-7.246
			c0-4.275,2.02-9.264,5.938-13.064c27.438-25.299,29.457-28.031,29.457-32.307c0-4.157-2.613-6.058-6.533-6.058
			c-5.701,0-10.334,2.97-15.203,7.364c-7.6-2.139-11.758-6.532-14.49-12.946c5.82-8.908,16.033-14.966,30.287-14.966
			c16.271,0,28.268,9.266,28.268,26.012c0,10.689-8.312,21.379-22.803,32.188l-3.801,2.494l4.631-0.475l24.347-0.118
			C78.281-674.188,78.875-670.387,78.875-667.062z"/>
		<path fill="#F4F7FC" d="M143.484-734.524c0.477,4.514,0.119,10.096-3.801,14.491l-12.352,13.539
			c7.838,1.425,18.291,7.127,18.291,21.854c0,21.497-15.68,29.693-32.9,29.693c-14.729,0-24.467-6.651-28.743-11.402
			c2.018-6.651,6.651-12.114,13.185-15.678c4.156,4.395,9.264,7.958,15.559,7.958s10.689-3.207,10.689-9.858
			c0-6.177-3.92-9.383-13.184-9.383H99.182c-0.236-0.832-0.355-1.545-0.355-2.139c0-2.257,0.951-3.682,2.02-4.869l12.945-15.56
			H87.543c-0.832-3.325-1.309-6.532-1.309-9.858c0.121-2.851,0.477-6.058,1.309-8.789H143.484z"/>
	</g>
	<path fill="#EAA74F" d="M41.346-627.963c0,8.431-5.736,13.204-14.205,13.204c-4.043,0-6.582-0.231-8.586-0.5v-24.638
		c1.619-0.308,4.543-0.654,8.586-0.654C36.303-640.551,41.346-635.508,41.346-627.963z M33.686-627.847
		c0-3.812-2.35-6.198-6.16-6.198c-0.615,0-1.309,0-2.039,0.039v12.703c0.654,0.038,1.346,0.038,2.039,0.038
		C31.336-621.265,33.686-623.728,33.686-627.847z"/>
	<path fill="#EAA74F" d="M61.941-618.339c0,1.039-0.076,2.041-0.309,3.08H44.465v-24.715h16.822c0.23,1.001,0.308,2.04,0.308,3.042
		c0,1.038-0.077,2.039-0.308,3.079h-9.893v3.042h8.775c0.232,0.999,0.309,2.001,0.309,3.04c0,1.001-0.076,2.003-0.309,3.003h-8.775
		v3.388h10.238C61.865-620.379,61.941-619.34,61.941-618.339z"/>
	<path fill="#EAA74F" d="M63.828-617.607c0.156-2.387,1.311-4.581,3.004-5.582c1.656,1.193,4.465,2.194,7.43,2.194
		c2.27,0,3.041-0.423,3.041-1.231c0-0.963-0.463-1.348-4.658-2.426c-4.311-1.077-7.969-2.694-8.006-7.776
		c-0.041-5.12,4.04-8.199,10.123-8.199c4.467,0,7.545,1.463,8.932,2.58c-0.154,2.154-1.154,4.465-3.119,5.619
		c-1.346-0.963-3.619-1.848-6.352-1.848c-1.924,0-2.887,0.463-2.887,1.232c0,0.886,0.309,1.154,4.965,2.271
		c4.467,1.078,7.584,3.08,7.701,7.392c0.152,5.697-3.695,8.738-9.895,8.738C68.834-614.644,65.523-616.221,63.828-617.607z"/>
	<path fill="#EAA74F" d="M87.236-615.259v-24.638c1.078-0.192,2.232-0.27,3.387-0.27c1.156,0,2.311,0.077,3.541,0.27v24.638
		c-1.078,0.192-2.233,0.269-3.387,0.269C89.623-614.99,88.467-615.066,87.236-615.259z"/>
	<path fill="#EAA74F" d="M119.65-627.616v11.126c-1.926,0.962-4.389,1.963-9.047,1.963c-8.432,0-13.322-5.198-13.322-12.974
		c0-7.737,5.275-13.319,13.553-13.319c3.543,0,6.312,0.924,8.197,2.117c-0.344,2.194-1.729,4.658-3.77,5.774
		c-1.271-0.848-2.85-1.271-4.543-1.271c-3.734,0-5.891,2.464-5.891,6.583c0,4.042,2.232,6.583,5.775,6.583
		c0.809,0,1.502-0.039,2.117-0.115v-6.468c1.154-0.192,2.309-0.308,3.465-0.308C117.34-627.924,118.494-627.809,119.65-627.616z"/>
	<path fill="#EAA74F" d="M145.482-639.896v24.561c-2.311,0.423-4.697,0.462-6.738,0.308l-7.93-12.049l-0.885-1.578l0.191,1.963
		v11.434c-1.193,0.154-2.424,0.269-3.502,0.269c-1.156,0-2.08-0.114-3.428-0.269v-24.522c1.655-0.462,4.506-0.577,6.738-0.346
		l7.93,12.549l0.885,1.578l-0.191-1.963v-11.934c1.271-0.192,2.192-0.27,3.387-0.27
		C143.133-640.166,144.248-640.089,145.482-639.896z"/>
	<g>
		<path fill="#F4F7FC" d="M-103.693-662.373c0,3.919-0.832,7.958-1.545,9.739h-59.148c-0.477-2.019-0.951-4.513-0.951-7.245
			c0-4.275,2.02-9.265,5.939-13.065c27.438-25.299,29.455-28.029,29.455-32.305c0-4.158-2.613-6.059-6.531-6.059
			c-5.701,0-10.334,2.97-15.203,7.364c-7.602-2.138-11.76-6.532-14.49-12.946c5.82-8.908,16.035-14.965,30.287-14.965
			c16.271,0,28.268,9.265,28.268,26.011c0,10.689-8.314,21.379-22.805,32.187l-3.801,2.494l4.633-0.474l24.348-0.12
			C-104.287-669.5-103.693-665.698-103.693-662.373z"/>
		<path fill="#F4F7FC" d="M-39.084-729.835c0.475,4.513,0.119,10.095-3.801,14.489l-12.352,13.54
			c7.838,1.425,18.289,7.126,18.289,21.854c0,21.497-15.676,29.693-32.9,29.693c-14.727,0-24.467-6.651-28.742-11.402
			c2.02-6.651,6.65-12.114,13.184-15.678c4.158,4.394,9.266,7.958,15.559,7.958c6.295,0,10.691-3.208,10.691-9.858
			c0-6.177-3.92-9.384-13.186-9.384h-11.045c-0.238-0.832-0.355-1.544-0.355-2.138c0-2.257,0.949-3.682,2.018-4.87l12.947-15.559
			h-26.25c-0.83-3.326-1.305-6.533-1.305-9.858c0.117-2.851,0.475-6.058,1.305-8.788H-39.084z"/>
	</g>
	<g>
		<circle fill="#EAA74F" cx="-10.14" cy="-711.172" r="9.932"/>
		<circle fill="#EAA74F" cx="-8.633" cy="-677.058" r="9.736"/>
		<g>
			<path fill="#3098CE" d="M-28.07-640.725c-16.101,23-43.096,38.893-73.626,38.893c-49.219,0-89.261-40.077-89.261-89.296
				c0-1.193,0.032-2.597,0.079-3.597h-19.558c-0.038,1-0.064,2.424-0.064,3.615c0,59.996,48.81,108.793,108.804,108.793
				c41.816,0,78.193-23.408,96.401-58.408H-28.07z"/>
		</g>
	</g>
</g>
<rect x="-902.537" y="-66.725" fill="#3D3863" width="804" height="600"/>
<g>
	<g>
		<path fill="#F4F7FC" d="M-389.224,225.188c0,3.919-0.832,7.958-1.546,9.74h-59.148c-0.474-2.02-0.948-4.515-0.948-7.246
			c0-4.275,2.02-9.264,5.938-13.064c27.438-25.299,29.457-28.031,29.457-32.307c0-4.157-2.614-6.058-6.534-6.058
			c-5.7,0-10.333,2.97-15.202,7.364c-7.6-2.139-11.758-6.532-14.49-12.946c5.82-8.908,16.033-14.966,30.288-14.966
			c16.271,0,28.267,9.266,28.267,26.012c0,10.689-8.312,21.379-22.803,32.188l-3.801,2.494l4.631-0.475l24.347-0.118
			C-389.818,218.062-389.224,221.863-389.224,225.188z"/>
		<path fill="#F4F7FC" d="M-324.614,157.726c0.476,4.514,0.12,10.096-3.801,14.491l-12.352,13.539
			c7.838,1.425,18.291,7.127,18.291,21.854c0,21.497-15.681,29.693-32.9,29.693c-14.729,0-24.467-6.651-28.743-11.402
			c2.018-6.651,6.65-12.114,13.184-15.678c4.157,4.395,9.265,7.958,15.56,7.958s10.688-3.207,10.688-9.858
			c0-6.177-3.919-9.383-13.182-9.383h-11.049c-0.235-0.832-0.354-1.545-0.354-2.139c0-2.257,0.951-3.682,2.019-4.869l12.946-15.56
			h-26.248c-0.832-3.325-1.309-6.532-1.309-9.858c0.121-2.851,0.477-6.058,1.309-8.789H-324.614z"/>
	</g>
	<path fill="#EAA74F" d="M-426.754,264.287c0,8.431-5.735,13.204-14.204,13.204c-4.044,0-6.582-0.231-8.586-0.5v-24.638
		c1.619-0.308,4.542-0.654,8.586-0.654C-431.796,251.699-426.754,256.742-426.754,264.287z M-434.413,264.403
		c0-3.812-2.35-6.198-6.16-6.198c-0.615,0-1.309,0-2.039,0.039v12.703c0.654,0.038,1.346,0.038,2.039,0.038
		C-436.763,270.985-434.413,268.522-434.413,264.403z"/>
	<path fill="#EAA74F" d="M-406.157,273.911c0,1.039-0.076,2.041-0.309,3.08h-17.169v-24.715h16.823
		c0.23,1.001,0.308,2.04,0.308,3.042c0,1.038-0.077,2.039-0.308,3.079h-9.893v3.042h8.775c0.232,0.999,0.31,2.001,0.31,3.04
		c0,1.001-0.077,2.003-0.31,3.003h-8.775v3.388h10.238C-406.233,271.871-406.157,272.91-406.157,273.911z"/>
	<path fill="#EAA74F" d="M-404.271,274.643c0.157-2.387,1.312-4.581,3.005-5.582c1.656,1.193,4.464,2.194,7.429,2.194
		c2.271,0,3.042-0.423,3.042-1.231c0-0.963-0.463-1.348-4.658-2.426c-4.311-1.077-7.969-2.694-8.006-7.776
		c-0.042-5.12,4.04-8.199,10.122-8.199c4.469,0,7.546,1.463,8.933,2.58c-0.154,2.154-1.154,4.465-3.119,5.619
		c-1.345-0.963-3.619-1.848-6.352-1.848c-1.925,0-2.887,0.463-2.887,1.232c0,0.886,0.309,1.154,4.965,2.271
		c4.467,1.078,7.584,3.08,7.701,7.392c0.152,5.697-3.695,8.738-9.895,8.738C-399.265,277.606-402.575,276.029-404.271,274.643z"/>
	<path fill="#EAA74F" d="M-380.862,276.991v-24.638c1.077-0.192,2.232-0.27,3.387-0.27c1.155,0,2.311,0.077,3.542,0.27v24.638
		c-1.079,0.192-2.234,0.269-3.388,0.269C-378.476,277.26-379.632,277.184-380.862,276.991z"/>
	<path fill="#EAA74F" d="M-348.448,264.634v11.126c-1.926,0.962-4.39,1.963-9.046,1.963c-8.433,0-13.322-5.198-13.322-12.974
		c0-7.737,5.274-13.319,13.552-13.319c3.542,0,6.313,0.924,8.198,2.117c-0.344,2.194-1.729,4.658-3.771,5.774
		c-1.271-0.848-2.85-1.271-4.542-1.271c-3.734,0-5.892,2.464-5.892,6.583c0,4.042,2.233,6.583,5.777,6.583
		c0.807,0,1.501-0.039,2.116-0.115v-6.468c1.154-0.192,2.309-0.308,3.465-0.308C-350.759,264.326-349.604,264.441-348.448,264.634z"
		/>
	<path fill="#EAA74F" d="M-322.616,252.354v24.561c-2.311,0.423-4.697,0.462-6.739,0.308l-7.93-12.049l-0.885-1.578l0.192,1.963
		v11.434c-1.193,0.154-2.425,0.269-3.502,0.269c-1.157,0-2.08-0.114-3.428-0.269v-24.522c1.655-0.462,4.505-0.577,6.737-0.346
		l7.931,12.549l0.884,1.578l-0.19-1.963v-11.934c1.271-0.192,2.192-0.27,3.387-0.27
		C-324.966,252.084-323.85,252.161-322.616,252.354z"/>
	<g>
		<path fill="#F4F7FC" d="M-571.792,229.877c0,3.919-0.832,7.958-1.546,9.739h-59.147c-0.477-2.019-0.951-4.513-0.951-7.245
			c0-4.275,2.02-9.265,5.939-13.065c27.438-25.299,29.455-28.029,29.455-32.305c0-4.158-2.614-6.059-6.531-6.059
			c-5.701,0-10.334,2.97-15.203,7.364c-7.602-2.138-11.759-6.532-14.49-12.946c5.82-8.908,16.035-14.965,30.287-14.965
			c16.271,0,28.268,9.265,28.268,26.011c0,10.689-8.314,21.379-22.805,32.187l-3.802,2.494l4.633-0.474l24.348-0.12
			C-572.387,222.75-571.792,226.552-571.792,229.877z"/>
		<path fill="#F4F7FC" d="M-507.183,162.415c0.475,4.513,0.119,10.095-3.801,14.489l-12.353,13.54
			c7.839,1.425,18.29,7.126,18.29,21.854c0,21.497-15.677,29.693-32.9,29.693c-14.727,0-24.467-6.651-28.742-11.402
			c2.019-6.651,6.65-12.114,13.183-15.678c4.159,4.394,9.267,7.958,15.56,7.958c6.294,0,10.691-3.208,10.691-9.858
			c0-6.177-3.92-9.384-13.186-9.384h-11.045c-0.238-0.832-0.355-1.544-0.355-2.138c0-2.257,0.949-3.682,2.018-4.87l12.947-15.559
			h-26.25c-0.83-3.326-1.305-6.533-1.305-9.858c0.117-2.851,0.475-6.058,1.305-8.788H-507.183z"/>
	</g>
	<g>
		<circle fill="#EAA74F" cx="-478.64" cy="181.078" r="9.932"/>
		<circle fill="#EAA74F" cx="-477.133" cy="215.192" r="9.736"/>
		<g>
			<path fill="#3098CE" d="M-496.57,251.275c-16.101,23-43.096,39.018-73.626,39.018c-49.219,0-89.261-40.14-89.261-89.358
				c0-1.193,0.032-2.659,0.079-3.659h-19.558c-0.038,1-0.064,2.549-0.064,3.74c0,59.996,48.81,108.73,108.804,108.73
				c41.816,0,78.193-23.471,96.401-58.471H-496.57z"/>
		</g>
	</g>
</g>
<path fill="#F4F7FC" d="M325.471,81.041c0,4.402-0.934,8.938-1.736,10.94h-66.434c-0.532-2.269-1.065-5.071-1.065-8.139
	c0-4.802,2.269-10.405,6.669-14.674c30.816-28.415,33.086-31.484,33.086-36.286c0-4.669-2.938-6.804-7.34-6.804
	c-6.402,0-11.605,3.336-17.074,8.271c-8.536-2.402-13.207-7.337-16.275-14.541C261.838,9.804,273.309,3,289.32,3
	c18.273,0,31.748,10.407,31.748,29.216c0,12.006-9.336,24.013-25.611,36.152l-4.27,2.802l5.2-0.533l27.347-0.133
	C324.803,73.038,325.471,77.307,325.471,81.041z"/>
<path fill="#F4F7FC" d="M398.039,5.269c0.534,5.069,0.135,11.339-4.27,16.276l-13.873,15.206
	c8.804,1.601,20.545,8.005,20.545,24.547c0,24.146-17.613,33.352-36.953,33.352c-16.543,0-27.48-7.471-32.284-12.808
	c2.267-7.471,7.47-13.606,14.808-17.608c4.67,4.936,10.406,8.938,17.477,8.938s12.005-3.602,12.005-11.072
	c0-6.938-4.401-10.539-14.806-10.539h-12.41c-0.264-0.934-0.397-1.734-0.397-2.401c0-2.535,1.068-4.136,2.267-5.47l14.541-17.476
	h-29.48c-0.936-3.735-1.471-7.337-1.471-11.073c0.137-3.201,0.535-6.804,1.471-9.871H398.039z"/>
<path fill="#EAA74F" d="M283.318,119.688c0,9.469-6.442,14.83-15.955,14.83c-4.541,0-7.393-0.26-9.643-0.561v-27.673
	c1.818-0.346,5.102-0.735,9.643-0.735C277.654,105.549,283.318,111.213,283.318,119.688z M274.717,119.818
	c0-4.281-2.641-6.962-6.921-6.962c-0.69,0-1.47,0-2.29,0.044v14.268c0.734,0.043,1.51,0.043,2.29,0.043
	C272.076,127.211,274.717,124.444,274.717,119.818z"/>
<path fill="#EAA74F" d="M306.451,130.497c0,1.167-0.086,2.292-0.346,3.46h-19.284v-27.76h18.896
	c0.259,1.124,0.346,2.291,0.346,3.417c0,1.166-0.087,2.29-0.346,3.458h-11.11v3.417h9.855c0.261,1.122,0.348,2.247,0.348,3.414
	c0,1.125-0.087,2.25-0.348,3.373h-9.855v3.805h11.499C306.365,128.206,306.451,129.373,306.451,130.497z"/>
<path fill="#EAA74F" d="M308.569,131.318c0.177-2.681,1.474-5.146,3.374-6.27c1.861,1.341,5.016,2.465,8.345,2.465
	c2.552,0,3.417-0.475,3.417-1.383c0-1.082-0.52-1.514-5.23-2.725c-4.844-1.21-8.952-3.026-8.994-8.734
	c-0.047-5.751,4.538-9.209,11.369-9.209c5.02,0,8.476,1.643,10.033,2.897c-0.174,2.42-1.297,5.015-3.504,6.312
	c-1.51-1.082-4.064-2.075-7.133-2.075c-2.162,0-3.242,0.52-3.242,1.384c0,0.995,0.348,1.297,5.576,2.551
	c5.017,1.211,8.518,3.459,8.649,8.302c0.171,6.399-4.15,9.814-11.113,9.814C314.193,134.647,310.475,132.876,308.569,131.318z"/>
<path fill="#EAA74F" d="M334.862,133.957v-27.673c1.21-0.216,2.507-0.303,3.804-0.303c1.298,0,2.596,0.087,3.979,0.303v27.673
	c-1.212,0.216-2.51,0.301-3.805,0.301C337.543,134.258,336.244,134.173,334.862,133.957z"/>
<path fill="#EAA74F" d="M371.27,120.077v12.496c-2.164,1.081-4.931,2.205-10.16,2.205c-9.472,0-14.964-5.839-14.964-14.572
	c0-8.69,5.925-14.96,15.222-14.96c3.978,0,7.091,1.038,9.207,2.378c-0.386,2.465-1.941,5.232-4.235,6.486
	c-1.427-0.952-3.2-1.428-5.102-1.428c-4.194,0-6.617,2.768-6.617,7.395c0,4.54,2.509,7.394,6.489,7.394
	c0.905,0,1.686-0.044,2.377-0.129v-7.265c1.296-0.216,2.592-0.346,3.893-0.346C368.674,119.731,369.971,119.861,371.27,120.077z"/>
<path fill="#EAA74F" d="M400.281,106.284v27.586c-2.594,0.475-5.273,0.519-7.567,0.345l-8.907-13.532l-0.993-1.772l0.216,2.204
	v12.843c-1.34,0.173-2.723,0.301-3.934,0.301c-1.299,0-2.336-0.128-3.85-0.301v-27.544c1.859-0.519,5.061-0.647,7.567-0.388
	l8.907,14.095l0.993,1.772l-0.214-2.205v-13.403c1.428-0.216,2.463-0.303,3.804-0.303S398.898,106.068,400.281,106.284z"/>
<path fill="#F4F7FC" d="M120.414,81.039c0,4.401-0.935,8.938-1.736,10.938H52.244c-0.535-2.267-1.068-5.068-1.068-8.138
	c0-4.802,2.268-10.405,6.672-14.675C88.664,40.75,90.931,37.684,90.931,32.881c0-4.67-2.937-6.805-7.336-6.805
	c-6.403,0-11.606,3.336-17.075,8.271c-8.539-2.4-13.208-7.337-16.277-14.541C56.781,9.801,68.254,2.999,84.262,2.999
	c18.275,0,31.75,10.405,31.75,29.214c0,12.007-9.34,24.013-25.615,36.151l-4.27,2.802l5.203-0.532l27.348-0.135
	C119.746,73.034,120.414,77.304,120.414,81.039z"/>
<path fill="#F4F7FC" d="M192.982,5.267c0.533,5.069,0.133,11.339-4.271,16.274l-13.873,15.208
	c8.804,1.601,20.543,8.004,20.543,24.546c0,24.146-17.608,33.352-36.953,33.352c-16.54,0-27.48-7.471-32.282-12.807
	c2.267-7.471,7.469-13.607,14.807-17.609c4.671,4.935,10.407,8.938,17.476,8.938c7.069,0,12.009-3.604,12.009-11.073
	c0-6.938-4.403-10.539-14.811-10.539h-12.405c-0.268-0.935-0.399-1.734-0.399-2.401c0-2.535,1.066-4.135,2.267-5.47l14.542-17.476
	h-29.483c-0.933-3.735-1.466-7.338-1.466-11.072c0.132-3.202,0.533-6.804,1.466-9.871H192.982z"/>
<circle fill="#EAA74F" cx="225.04" cy="26.229" r="11.155"/>
<circle fill="#EAA74F" cx="226.732" cy="64.545" r="10.936"/>
<g>
	<path fill="#3098CE" d="M204.901,105.275c-18.084,26-48.404,43.723-82.695,43.723c-55.281,0-100.256-45.208-100.256-100.489
		c0-1.34,0.036-3.233,0.089-4.233H0.072C0.029,45.275,0,47.211,0,48.549c0,67.387,54.822,122.262,122.206,122.262
		c46.968,0,87.825-26.535,108.276-65.535H204.901z"/>
</g>
</svg>
